<svg width="24" height="24" viewBox="0 0 24 24" fill="none" xmlns="http://www.w3.org/2000/svg">
<path d="M2 7.25C2 6.38805 2.34241 5.5614 2.9519 4.9519C3.5614 4.34241 4.38805 4 5.25 4H18.75C19.1768 4 19.5994 4.08406 19.9937 4.24739C20.388 4.41072 20.7463 4.65011 21.0481 4.9519C21.3499 5.25369 21.5893 5.61197 21.7526 6.00628C21.9159 6.40059 22 6.8232 22 7.25V14.5C21.9999 13.923 21.8572 13.3549 21.5845 12.8464C21.3117 12.3378 20.9175 11.9046 20.4369 11.5853C19.9563 11.266 19.4042 11.0704 18.8297 11.0161C18.2552 10.9617 17.6762 11.0502 17.1442 11.2738C16.6122 11.4973 16.1438 11.8489 15.7805 12.2972C15.4173 12.7456 15.1705 13.2768 15.0622 13.8436C14.9539 14.4104 14.9874 14.9951 15.1597 15.5458C15.3321 16.0965 15.6379 16.5961 16.05 17H15.773C15.4089 16.9999 15.0483 17.0715 14.7119 17.2107C14.3755 17.35 14.0698 17.5541 13.8123 17.8115C13.5547 18.069 13.3505 18.3746 13.2111 18.711C13.0717 19.0473 13 19.4079 13 19.772V19.875C13 19.917 13 19.958 13.002 20H5.25C4.38805 20 3.5614 19.6576 2.9519 19.0481C2.34241 18.4386 2 17.612 2 16.75V7.25ZM7 8.75V15.25C7 15.4489 7.07902 15.6397 7.21967 15.7803C7.36032 15.921 7.55109 16 7.75 16C7.94891 16 8.13968 15.921 8.28033 15.7803C8.42098 15.6397 8.5 15.4489 8.5 15.25V13.5H9.75C10.4793 13.5 11.1788 13.2103 11.6945 12.6945C12.2103 12.1788 12.5 11.4793 12.5 10.75C12.5 10.0207 12.2103 9.32118 11.6945 8.80546C11.1788 8.28973 10.4793 8 9.75 8H7.75C7.55109 8 7.36032 8.07902 7.21967 8.21967C7.07902 8.36032 7 8.55109 7 8.75ZM8.5 12H9.75C10.0815 12 10.3995 11.8683 10.6339 11.6339C10.8683 11.3995 11 11.0815 11 10.75C11 10.4185 10.8683 10.1005 10.6339 9.86612C10.3995 9.6317 10.0815 9.5 9.75 9.5H8.5V12ZM21 14.5C21 15.163 20.7366 15.7989 20.2678 16.2678C19.7989 16.7366 19.163 17 18.5 17C17.837 17 17.2011 16.7366 16.7322 16.2678C16.2634 15.7989 16 15.163 16 14.5C16 13.837 16.2634 13.2011 16.7322 12.7322C17.2011 12.2634 17.837 12 18.5 12C19.163 12 19.7989 12.2634 20.2678 12.7322C20.7366 13.2011 21 13.837 21 14.5ZM23 19.875C23 21.431 21.714 23 18.5 23C15.286 23 14 21.437 14 19.875V19.772C14 18.792 14.794 18 15.773 18H21.227C22.207 18 23 18.793 23 19.772V19.875Z" fill="red"/>
</svg>
