<svg width="45" height="45" viewBox="0 0 45 45" fill="none" xmlns="http://www.w3.org/2000/svg">
<path d="M9.84375 7.5H35.1562C36.7128 7.4999 38.2103 8.09541 39.3417 9.16438C40.4731 10.2334 41.1525 11.6947 41.2406 13.2487L41.25 13.5938V31.4062C41.2501 32.9628 40.6546 34.4603 39.5856 35.5917C38.5166 36.7231 37.0553 37.4025 35.5013 37.4906L35.1562 37.5H9.84375C8.28724 37.5001 6.7897 36.9046 5.65832 35.8356C4.52694 34.7666 3.8475 33.3053 3.75938 31.7513L3.75 31.4062V13.5938C3.7499 12.0372 4.34541 10.5397 5.41438 9.40832C6.48335 8.27694 7.94474 7.5975 9.49875 7.50938L9.84375 7.5ZM38.4375 17.5744L23.1563 25.6181C22.9837 25.7093 22.7941 25.7635 22.5994 25.7774C22.4048 25.7913 22.2094 25.7645 22.0256 25.6988L21.8456 25.62L6.5625 17.5762V31.4062C6.56253 32.2297 6.8722 33.0231 7.43002 33.6289C7.98785 34.2346 8.75306 34.6085 9.57375 34.6762L9.84375 34.6875H35.1562C35.98 34.6874 36.7736 34.3775 37.3795 33.8193C37.9853 33.2611 38.3589 32.4954 38.4262 31.6744L38.4375 31.4062V17.5744ZM35.1562 10.3125H9.84375C9.02027 10.3125 8.2269 10.6222 7.62114 11.18C7.01538 11.7379 6.64151 12.5031 6.57375 13.3237L6.5625 13.5938V14.3981L22.5 22.7869L38.4375 14.3962V13.5938C38.4374 12.77 38.1275 11.9764 37.5693 11.3705C37.0111 10.7647 36.2454 10.3911 35.4244 10.3238L35.1562 10.3125Z" fill="white"/>
</svg>
