<svg width="326" height="297" viewBox="0 0 326 297" fill="none" xmlns="http://www.w3.org/2000/svg">
<path d="M251.45 293.125H81.4999L59.45 41.4273H273.45L251.45 293.125Z" fill="#338498"/>
<path d="M306.45 296.175H260.55L239.05 233.426L226.45 296.175H106.2L94.3 231.876L73.3 296.175H27.45L43.45 224.176L79.45 156.776C84.05 152.076 91.5 145.577 102.15 140.377C114.3 134.377 125.4 132.677 132.35 132.127L135.45 127.227H198.45C199.5 128.877 200.5 130.477 201.55 132.127C209 132.727 221 134.727 233.95 141.577C243.2 146.477 249.95 152.276 254.45 156.826L290.45 224.276L306.45 296.175Z" fill="#333333"/>
<path d="M147.15 91.9269L141.7 130.827H192.2L187.95 91.9269H147.15Z" fill="#FFC7BB"/>
<path d="M193.1 32.5774V87.777L174.75 105.777H161.8L142.8 87.777V32.5774H193.1Z" fill="#FFC7BB"/>
<path d="M195.3 48.9272C195.3 48.9272 179.15 35.0774 169.45 42.2773C159.8 49.4272 140.8 52.9272 141.95 37.2773C143.1 21.6275 143.6 17.6275 137.95 17.6275C137.95 17.6275 156.45 -3.87234 174.6 9.27756C174.6 9.27756 171.95 -0.722369 157.1 2.42761C157.1 2.42761 179.45 -8.2223 189.95 21.2775C189.95 21.2775 215.3 25.2774 195.3 48.9272Z" fill="#2C373B"/>
<path d="M142.7 24.7275C142.7 24.7275 119.4 12.6776 142.8 70.2271L142.7 24.7275Z" fill="#2C373B"/>
<path d="M192.2 36.5773C192.2 36.5773 208 30.1774 193.1 70.2271L192.2 36.5773Z" fill="#2C373B"/>
<path d="M178.55 31.0774C178.55 31.0774 178.4 31.7274 177.95 32.7774C177.55 33.8274 176.9 35.3274 175.9 37.0773C175.4 37.9273 174.85 38.8773 174.2 39.7773C173.55 40.7273 172.85 41.6773 172.05 42.6273C171.65 43.0773 171.25 43.5773 170.8 44.0273C170.6 44.2773 170.35 44.4773 170.15 44.7273C169.9 44.9273 169.65 45.1773 169.45 45.3773C169 45.8273 168.45 46.2273 167.95 46.6773C167.4 47.0773 166.9 47.4773 166.35 47.8773C165.8 48.2273 165.25 48.6272 164.65 48.9272C164.35 49.0772 164.05 49.2772 163.8 49.4272C163.5 49.5772 163.2 49.7273 162.9 49.8772C161.7 50.4772 160.45 50.8772 159.25 51.1772C158.65 51.3272 158.05 51.4772 157.45 51.5772C156.85 51.6272 156.25 51.7272 155.7 51.7772C155.1 51.8272 154.55 51.8272 154.05 51.8272C153.5 51.8272 153 51.7772 152.5 51.7272C152 51.7272 151.55 51.6272 151.1 51.5772C150.65 51.4772 150.25 51.4772 149.85 51.3772C149.05 51.1772 148.4 51.0272 147.85 50.8272C146.75 50.4272 146.15 50.2273 146.15 50.2273C146.15 50.2273 146.8 50.2772 147.9 50.4272C148.45 50.5272 149.15 50.5272 149.9 50.5772C150.3 50.6272 150.7 50.5772 151.15 50.5772C151.6 50.5772 152.05 50.6272 152.5 50.5772C152.95 50.5272 153.45 50.5272 153.95 50.4773C154.45 50.4273 154.95 50.3272 155.5 50.2772C156 50.1772 156.55 50.0272 157.1 49.9272C157.65 49.7772 158.2 49.6273 158.75 49.4773C159.3 49.2773 159.85 49.0773 160.4 48.8773C160.95 48.6273 161.5 48.4273 162.05 48.1273C162.3 47.9773 162.6 47.8273 162.85 47.7273L163.65 47.2773C164.2 46.9773 164.7 46.6273 165.2 46.2773C165.7 45.9273 166.2 45.5273 166.7 45.1773C167.2 44.7773 167.7 44.4273 168.15 43.9773C169.1 43.1773 169.95 42.3273 170.8 41.4773C171.6 40.6273 172.4 39.7773 173.05 38.9273C173.75 38.0773 174.4 37.2773 174.95 36.4773C175.5 35.6774 176.05 34.9774 176.45 34.3274C176.9 33.6774 177.25 33.1274 177.55 32.6274C178.25 31.6274 178.55 31.0774 178.55 31.0774Z" fill="#2C373B"/>
<path d="M179.7 22.7275C179.7 22.7275 180.1 22.5275 180.9 22.1775C181.65 21.8775 182.8 21.4275 184.15 21.0775C184.85 20.8775 185.6 20.6775 186.4 20.5275C187.2 20.3775 188.05 20.2275 188.95 20.1275C189.85 20.0275 190.75 19.9775 191.7 19.9275C192.65 19.9275 193.6 19.9275 194.6 20.0775C195.55 20.1775 196.55 20.3775 197.5 20.6275C197.95 20.7775 198.45 20.8775 198.9 21.1275C199.1 21.2275 199.35 21.3275 199.55 21.4275C199.75 21.5275 199.95 21.6275 200.2 21.7775C201.05 22.2275 201.75 22.7775 202.4 23.3775C202.7 23.7275 203 24.0275 203.25 24.3275C203.45 24.6775 203.7 24.9775 203.9 25.3275C204.05 25.6775 204.25 25.9774 204.35 26.2774C204.45 26.5774 204.55 26.8774 204.65 27.1774C204.8 27.7274 204.85 28.2774 204.95 28.6774C205 29.5274 205 29.9774 205 29.9774C205 29.9774 204.85 29.5274 204.55 28.7774C204.45 28.5774 204.35 28.3774 204.25 28.1774C204.15 27.9774 204.05 27.7274 203.9 27.4774C203.75 27.2274 203.6 26.9774 203.45 26.7274C203.25 26.4774 203.1 26.2274 202.9 25.9774C202.7 25.7274 202.45 25.4774 202.2 25.2275C201.95 24.9775 201.65 24.7775 201.4 24.5275C200.8 24.0775 200.15 23.6775 199.4 23.3775C198.65 23.0275 197.85 22.7775 197 22.5775C196.15 22.3775 195.3 22.2275 194.4 22.1275C193.5 22.0275 192.6 21.9775 191.7 21.9275C191.25 21.9275 190.8 21.9275 190.35 21.9275C189.9 21.9275 189.5 21.9275 189.05 21.9775C188.2 22.0275 187.35 22.0275 186.55 22.1275C185.75 22.1775 185 22.2275 184.3 22.3275C182.9 22.4775 181.75 22.5775 180.95 22.6775C180.15 22.6775 179.7 22.7275 179.7 22.7275Z" fill="#2C373B"/>
<path d="M142.85 60.8772C142.85 60.8772 133.35 53.9772 134.1 59.6272C134.85 65.2771 140.1 78.127 142.8 74.2771L142.85 60.8772Z" fill="#FFC7BB"/>
<path d="M192.85 61.9272C192.85 61.9272 202.35 55.0272 201.6 60.6772C200.85 66.3271 195.8 79.177 193.05 75.2771L192.85 61.9272Z" fill="#FFC7BB"/>
<path d="M147.15 91.9269L158.7 111.377H177.45L187.95 91.9269H147.15Z" fill="#D99282"/>
<path d="M193.1 70.2771V87.777L174.75 105.777H161.8L142.8 87.777V70.2771L153.05 76.2771L155.45 86.827L157.95 80.077H177.95L180.45 86.827L182.85 76.2771L193.1 70.2771Z" fill="#2C373B"/>
<path d="M142.85 63.1271C142.85 63.1271 135.7 58.4772 137.35 61.7271C139 64.9271 142.8 72.377 142.8 72.377L142.85 67.2271L141.1 66.5271" fill="#D99282"/>
<path d="M194.85 67.1771L193.1 67.8771L193.15 73.0271C193.15 73.0271 197 65.6271 198.6 62.3772C200.2 59.1272 193.1 63.7771 193.1 63.7771" fill="#D99282"/>
<path d="M137 130.827L143.35 114.777L161.75 130.827L146.6 156.776L137 130.827Z" fill="white"/>
<path d="M197.45 130.827L191.05 114.777L172.7 130.827L187.85 156.776L197.45 130.827Z" fill="white"/>
<path d="M172.55 130.827H167.25H162L146.6 156.776L167.25 258.826L187.95 156.776L172.55 130.827Z" fill="white"/>
<path d="M161.75 130.827H163.4L148.3 165.126L146.35 156.126L161.75 130.827Z" fill="#FCEDED"/>
<path d="M172.7 130.827L187.95 156.776L186.5 164.026L171.55 130.827H172.7Z" fill="#FCEDED"/>
<path d="M172.75 130.827H167.2H161.75L154.85 142.177L161.75 154.426H167.2H167.25H172.75L179.5 142.427L172.75 130.827Z" fill="#404040"/>
<path d="M161.75 154.426L152.65 189.376L167.25 267.526L181.9 189.376L172.75 154.426H161.75Z" fill="#404040"/>
<path d="M221.4 296.175H112.5L84.6001 194.826H249.3L221.4 296.175Z" fill="#999999"/>
<path d="M84.6001 194.826L88.8001 190.476H245.95L249.3 194.826H84.6001Z" fill="#A3A3A3"/>
<path d="M167.4 254.676C176.319 254.676 183.55 249.572 183.55 243.276C183.55 236.98 176.319 231.876 167.4 231.876C158.481 231.876 151.25 236.98 151.25 243.276C151.25 249.572 158.481 254.676 167.4 254.676Z" fill="white"/>
<path d="M325.9 294.875C325.9 295.375 325.7 295.825 325.4 296.125C325.1 296.425 324.65 296.625 324.15 296.625H2.70003C1.70003 296.625 0.900024 295.825 0.900024 294.875C0.900024 294.375 1.10002 293.925 1.40002 293.625C1.70002 293.325 2.15002 293.125 2.65002 293.125H324.1C325.1 293.125 325.9 293.925 325.9 294.875Z" fill="#333333"/>
</svg>
