<svg width="651" height="593" viewBox="0 0 651 593" fill="none" xmlns="http://www.w3.org/2000/svg">
<path d="M502 585.7H162.1L118 82.2999H546L502 585.7Z" fill="#338498"/>
<path d="M612 591.8H520.2L477.2 466.3L452 591.8H211.5L187.7 463.2L145.7 591.8H54L86 447.8L158 313C167.2 303.6 182.1 290.6 203.4 280.2C227.7 268.2 249.9 264.8 263.8 263.7L270 253.9H396C398.1 257.2 400.1 260.4 402.2 263.7C417.1 264.9 441.1 268.9 467 282.6C485.5 292.4 499 304 508 313.1L580 448L612 591.8Z" fill="#333333"/>
<path d="M293.4 183.3L282.5 261.1H383.5L375 183.3H293.4Z" fill="#FFC7BB"/>
<path d="M385.3 64.6V175L348.6 211H322.7L284.7 175V64.6H385.3Z" fill="#FFC7BB"/>
<path d="M389.7 97.2999C389.7 97.2999 357.4 69.6 338 84C318.7 98.3 280.7 105.3 283 74C285.3 42.7 286.3 34.7 275 34.7C275 34.7 312 -8.30004 348.3 18C348.3 18 343 -2.00006 313.3 4.29994C313.3 4.29994 358 -17 379 42C379 42 429.7 49.9999 389.7 97.2999Z" fill="#2C373B"/>
<path d="M284.5 48.9C284.5 48.9 237.9 24.8 284.7 139.9L284.5 48.9Z" fill="#2C373B"/>
<path d="M383.5 72.5999C383.5 72.5999 415.1 59.8 385.3 139.9L383.5 72.5999Z" fill="#2C373B"/>
<path d="M356.2 61.6C356.2 61.6 355.9 62.9 355 65C354.2 67.1 352.9 70.1 350.9 73.6C349.9 75.3 348.8 77.2 347.5 79C346.2 80.9 344.8 82.8 343.2 84.7C342.4 85.6 341.6 86.6 340.7 87.5C340.3 88 339.8 88.4 339.4 88.9C338.9 89.3 338.4 89.8 338 90.2C337.1 91.1 336 91.9 335 92.8C333.9 93.6 332.9 94.4 331.8 95.2C330.7 95.9 329.6 96.7 328.4 97.3C327.8 97.6 327.2 98 326.7 98.3C326.1 98.6 325.5 98.9 324.9 99.2C322.5 100.4 320 101.2 317.6 101.8C316.4 102.1 315.2 102.4 314 102.6C312.8 102.7 311.6 102.9 310.5 103C309.3 103.1 308.2 103.1 307.2 103.1C306.1 103.1 305.1 103 304.1 102.9C303.1 102.9 302.2 102.7 301.3 102.6C300.4 102.4 299.6 102.4 298.8 102.2C297.2 101.8 295.9 101.5 294.8 101.1C292.6 100.3 291.4 99.9 291.4 99.9C291.4 99.9 292.7 100 294.9 100.3C296 100.5 297.4 100.5 298.9 100.6C299.7 100.7 300.5 100.6 301.4 100.6C302.3 100.6 303.2 100.7 304.1 100.6C305 100.5 306 100.5 307 100.4C308 100.3 309 100.1 310.1 100C311.1 99.8 312.2 99.5 313.3 99.3C314.4 99 315.5 98.7 316.6 98.4C317.7 98 318.8 97.6 319.9 97.2C321 96.7 322.1 96.3 323.2 95.7C323.7 95.4 324.3 95.1 324.8 94.9L326.4 94C327.5 93.4 328.5 92.7 329.5 92C330.5 91.3 331.5 90.5 332.5 89.8C333.5 89 334.5 88.3 335.4 87.4C337.3 85.8 339 84.1 340.7 82.4C342.3 80.7 343.9 79 345.2 77.3C346.6 75.6 347.9 74 349 72.4C350.1 70.8 351.2 69.4 352 68.1C352.9 66.8 353.6 65.7 354.2 64.7C355.6 62.7 356.2 61.6 356.2 61.6Z" fill="#2C373B"/>
<path d="M358.5 44.8999C358.5 44.8999 359.3 44.4999 360.9 43.7999C362.4 43.1999 364.7 42.2999 367.4 41.5999C368.8 41.1999 370.3 40.7999 371.9 40.4999C373.5 40.1999 375.2 39.9 377 39.7C378.8 39.5 380.6 39.3999 382.5 39.2999C384.4 39.2999 386.3 39.2999 388.3 39.5999C390.2 39.7999 392.2 40.2 394.1 40.7C395 41 396 41.2 396.9 41.7C397.3 41.9 397.8 42.0999 398.2 42.2999C398.6 42.4999 399 42.6999 399.5 42.9999C401.2 43.8999 402.6 45 403.9 46.2C404.5 46.9 405.1 47.4999 405.6 48.0999C406 48.7999 406.5 49.3999 406.9 50.0999C407.2 50.7999 407.6 51.3999 407.8 51.9999C408 52.5999 408.2 53.1999 408.4 53.7999C408.7 54.8999 408.8 55.9999 409 56.7999C409.1 58.4999 409.1 59.3999 409.1 59.3999C409.1 59.3999 408.8 58.4999 408.2 56.9999C408 56.5999 407.8 56.1999 407.6 55.7999C407.4 55.3999 407.2 54.8999 406.9 54.3999C406.6 53.8999 406.3 53.3999 406 52.8999C405.6 52.3999 405.3 51.8999 404.9 51.3999C404.5 50.8999 404 50.3999 403.5 49.8999C403 49.3999 402.4 48.9999 401.9 48.4999C400.7 47.5999 399.4 46.8 397.9 46.2C396.4 45.5 394.8 44.9999 393.1 44.5999C391.4 44.1999 389.7 43.9 387.9 43.7C386.1 43.5 384.3 43.3999 382.5 43.2999C381.6 43.2999 380.7 43.2999 379.8 43.2999C378.9 43.2999 378.1 43.2999 377.2 43.3999C375.5 43.4999 373.8 43.5 372.2 43.7C370.6 43.8 369.1 43.8999 367.7 44.0999C364.9 44.3999 362.6 44.5999 361 44.7999C359.4 44.7999 358.5 44.8999 358.5 44.8999Z" fill="#2C373B"/>
<path d="M284.8 121.2C284.8 121.2 265.8 107.4 267.3 118.7C268.8 130 279.3 155.7 284.7 148L284.8 121.2Z" fill="#FFC7BB"/>
<path d="M384.8 123.3C384.8 123.3 403.8 109.5 402.3 120.8C400.8 132.1 390.7 157.8 385.2 150L384.8 123.3Z" fill="#FFC7BB"/>
<path d="M293.4 183.3L316.5 222.2H354L375 183.3H293.4Z" fill="#D99282"/>
<path d="M385.3 140V175L348.6 211H322.7L284.7 175V140L305.2 152L310 173.1L315 159.6H355L360 173.1L364.8 152L385.3 140Z" fill="#2C373B"/>
<path d="M284.8 125.7C284.8 125.7 270.5 116.4 273.8 122.9C277.1 129.3 284.7 144.2 284.7 144.2L284.8 133.9L281.3 132.5" fill="#D99282"/>
<path d="M388.8 133.8L385.3 135.2L385.4 145.5C385.4 145.5 393.1 130.7 396.3 124.2C399.5 117.7 385.3 127 385.3 127" fill="#D99282"/>
<path d="M273.1 261.1L285.8 229L322.6 261.1L292.3 313L273.1 261.1Z" fill="white"/>
<path d="M394 261.1L381.2 229L344.5 261.1L374.8 313L394 261.1Z" fill="white"/>
<path d="M344.2 261.1H333.6H323.1L292.3 313L333.6 517.1L375 313L344.2 261.1Z" fill="white"/>
<path d="M322.6 261.1H325.9L295.7 329.7L291.8 311.7L322.6 261.1Z" fill="#FCEDED"/>
<path d="M344.5 261.1L375 313L372.1 327.5L342.2 261.1H344.5Z" fill="#FCEDED"/>
<path d="M344.6 261.1H333.5H322.6L308.8 283.8L322.6 308.3H333.5H333.6H344.6L358.1 284.3L344.6 261.1Z" fill="#404040"/>
<path d="M322.6 308.3L304.4 378.2L333.6 534.5L362.9 378.2L344.6 308.3H322.6Z" fill="#404040"/>
<path d="M441.9 591.8H224.1L168.3 389.1H497.7L441.9 591.8Z" fill="#999999"/>
<path d="M168.3 389.1L176.7 380.4H491L497.7 389.1H168.3Z" fill="#A3A3A3"/>
<path d="M333.9 508.8C351.739 508.8 366.2 498.592 366.2 486C366.2 473.408 351.739 463.2 333.9 463.2C316.061 463.2 301.6 473.408 301.6 486C301.6 498.592 316.061 508.8 333.9 508.8Z" fill="white"/>
<path d="M650.9 589.2C650.9 590.2 650.5 591.1 649.9 591.7C649.3 592.3 648.4 592.7 647.4 592.7H4.50003C2.50003 592.7 0.900024 591.1 0.900024 589.2C0.900024 588.2 1.30002 587.3 1.90002 586.7C2.50002 586.1 3.40002 585.7 4.40002 585.7H647.3C649.3 585.7 650.9 587.3 650.9 589.2Z" fill="#333333"/>
</svg>
