<svg width="45" height="45" viewBox="0 0 45 45" fill="none" xmlns="http://www.w3.org/2000/svg">
<path d="M34.5881 39.255H10.4119V36.8625H34.5881V39.255ZM39.3244 0H17.8331V12.2063H18.0281C19.8769 9.81375 22.1644 9.58125 24.6619 9.7575C28.35 9.97687 31.9556 12.2813 32.1938 19.4494V33.1781C32.1938 33.345 32.1 33.51 31.935 33.51H27.6413C27.4725 33.51 27.1669 33.3562 27.1669 33.1781V19.875C27.1669 16.5319 26.0794 14.0344 22.7775 14.0344C20.3738 14.0344 17.8331 15.7069 17.8331 19.2281V33.135C17.8331 33.3019 17.8181 33.27 17.6419 33.27H13.3481C13.1794 33.27 12.8044 33.3113 12.8044 33.135V0H5.95876C4.37813 0 2.99438 1.26187 2.99438 2.84062V42.2081C2.99438 43.7887 4.37813 45 5.95688 45H39.3263C40.9069 45 42.0094 43.7887 42.0094 42.2081V2.84062C42.0094 1.26187 40.9069 0 39.3281 0" fill="white"/>
</svg>
