<svg width="45" height="45" viewBox="0 0 45 45" fill="none" xmlns="http://www.w3.org/2000/svg">
<g clip-path="url(#clip0_65_22)">
<path d="M25.2806 -0.000610207C24.9409 0.0106628 24.6069 0.0890302 24.2976 0.229978C23.9884 0.370925 23.7101 0.571667 23.4787 0.82064L13.3425 11.6731L6.11624 19.4094C5.0638 20.53 4.28757 21.8808 3.84936 23.3544C3.75545 23.671 3.67723 23.992 3.61499 24.3163C3.33404 25.7836 3.3737 27.2944 3.73124 28.745C3.89016 29.3994 4.10922 30.0378 4.38561 30.6519C4.95882 31.9277 5.7673 33.0842 6.76874 34.0606L14.7881 41.9225L14.8612 41.9938C19.0762 46.0531 25.8337 45.9931 29.9794 41.855L34.4719 37.37C35.4844 36.3575 35.4844 34.7188 34.4775 33.7044C34.2379 33.4635 33.9531 33.2722 33.6394 33.1415C33.3257 33.0108 32.9894 32.9433 32.6496 32.9427C32.3098 32.9422 31.9732 33.0087 31.6592 33.1384C31.3451 33.2682 31.0597 33.4586 30.8194 33.6988L26.3269 38.1838C25.2794 39.2176 23.8707 39.8031 22.3991 39.8164C20.9275 39.8297 19.5084 39.2697 18.4425 38.255L18.405 38.2194L10.3875 30.3575C9.16499 29.1575 8.56499 27.6031 8.60999 26.1144C8.61891 25.7842 8.66036 25.4558 8.73374 25.1338C8.9222 24.3169 9.3225 23.5642 9.89436 22.9513L17.1187 15.2131C19.1025 13.0869 23.1262 12.8319 25.425 14.6919L31.9894 20C33.1012 20.9 34.7287 20.7256 35.6269 19.6119C36.0574 19.0769 36.2583 18.393 36.1855 17.7101C36.1128 17.0273 35.7723 16.4011 35.2387 15.9688L28.6762 10.6606C27.1762 9.44751 25.365 8.70127 23.475 8.40689L27.2531 4.36064C27.6014 3.98617 27.8312 3.51714 27.9138 3.01246C27.9964 2.50779 27.9281 1.98996 27.7173 1.52401C27.5066 1.05806 27.1629 0.664762 26.7293 0.39351C26.2958 0.122258 25.7918 -0.0148547 25.2806 -0.000610207ZM19.9069 24.0275C19.5668 24.0275 19.23 24.0946 18.9158 24.2248C18.6016 24.3551 18.3162 24.546 18.0759 24.7867C17.8356 25.0274 17.6451 25.3131 17.5152 25.6274C17.3854 25.9418 17.3189 26.2787 17.3194 26.6188C17.3189 26.9589 17.3854 27.2957 17.5152 27.6101C17.6451 27.9245 17.8356 28.2102 18.0759 28.4508C18.3162 28.6915 18.6016 28.8824 18.9158 29.0127C19.23 29.143 19.5668 29.21 19.9069 29.21H38.9812C39.3214 29.21 39.6581 29.143 39.9723 29.0127C40.2865 28.8824 40.5719 28.6915 40.8122 28.4508C41.0525 28.2102 41.243 27.9245 41.3729 27.6101C41.5027 27.2957 41.5692 26.9589 41.5687 26.6188C41.5692 26.2787 41.5027 25.9418 41.3729 25.6274C41.243 25.3131 41.0525 25.0274 40.8122 24.7867C40.5719 24.546 40.2865 24.3551 39.9723 24.2248C39.6581 24.0946 39.3214 24.0275 38.9812 24.0275H19.9069Z" fill="white"/>
</g>
<defs>
<clipPath id="clip0_65_22">
<rect width="45" height="45" fill="white"/>
</clipPath>
</defs>
</svg>
