<svg width="45" height="45" viewBox="0 0 45 45" fill="none" xmlns="http://www.w3.org/2000/svg">
<g clip-path="url(#clip0_65_26)">
<path d="M0 0V45H45V0H0ZM18.6562 15.0037H22.0406C22.155 15.0037 22.2488 15.0975 22.2488 15.2119V29.775C22.2488 29.8894 22.155 29.9831 22.0425 29.9831H18.6562C18.6014 29.9831 18.5487 29.9615 18.5097 29.9228C18.4708 29.8842 18.4486 29.8317 18.4481 29.7769V24.3956H14.8013V29.7769C14.8013 29.8894 14.7075 29.9831 14.595 29.9831H11.205C11.1779 29.9831 11.1511 29.9778 11.1261 29.9674C11.101 29.9571 11.0783 29.9419 11.0592 29.9227C11.04 29.9036 11.0248 29.8808 11.0145 29.8558C11.0041 29.8308 10.9988 29.804 10.9988 29.7769V15.21C10.9988 15.0975 11.0925 15.0037 11.205 15.0037H14.5913C14.7056 15.0037 14.7975 15.0975 14.7975 15.21V20.5894H18.45V15.2081C18.45 15.0956 18.5437 15.0037 18.6562 15.0037ZM24.2794 15.0037H35.1131C35.2275 15.0037 35.3212 15.0975 35.3212 15.21V29.7731C35.3217 29.8005 35.3168 29.8277 35.3066 29.8532C35.2965 29.8787 35.2814 29.9018 35.2622 29.9214C35.243 29.9409 35.2201 29.9565 35.1948 29.9671C35.1695 29.9777 35.1424 29.9831 35.115 29.9831H24.2775C24.2228 29.9831 24.1703 29.9614 24.1317 29.9227C24.093 29.884 24.0713 29.8316 24.0713 29.7769V15.2081C24.0713 15.0956 24.165 15.0019 24.2775 15.0019L24.2794 15.0037Z" fill="white"/>
</g>
<defs>
<clipPath id="clip0_65_26">
<rect width="45" height="45" fill="white"/>
</clipPath>
</defs>
</svg>
