<svg 
 xmlns="http://www.w3.org/2000/svg"
 xmlns:xlink="http://www.w3.org/1999/xlink"
 width="656px" height="229px">
<path fill-rule="evenodd"  fill="rgb(255, 255, 255)"
 d="M653.682,61.544 C653.96,61.544 652.364,61.398 651.631,60.666 C650.459,59.494 649.287,59.347 644.307,59.347 C636.983,59.494 625.557,61.105 609.883,64.474 C607.171,65.43 603.869,65.769 600.551,66.519 C599.249,69.364 597.946,72.582 597.432,73.996 C595.381,79.562 590.254,94.650 588.350,100.802 C587.324,104.171 585.420,110.470 583.955,114.865 C582.490,119.113 580.440,126.291 579.414,130.685 L576.45,143.576 C574.580,148.703 573.262,154.269 573.262,155.294 C573.262,155.734 573.408,156.27 573.555,156.27 C573.848,156.27 574.141,155.587 574.434,154.855 L577.71,146.505 C579.268,140.207 580.586,136.837 584.834,126.730 C587.31,121.896 592.891,111.203 594.502,109.591 C596.553,107.394 598.457,106.369 600.69,106.369 C600.947,106.369 601.680,106.662 602.412,107.248 C603.145,107.980 603.584,108.859 603.584,110.324 C603.584,113.107 602.119,117.794 598.897,126.583 C596.553,132.589 595.967,135.80 595.528,138.742 L595.528,139.914 C595.528,141.525 596.114,142.111 597.432,142.404 L598.457,142.550 C600.655,142.550 602.852,140.646 605.781,135.958 C605.910,135.733 606.34,135.526 606.155,135.325 C606.269,132.900 606.501,130.232 606.807,128.195 C607.686,121.896 610.176,114.572 611.641,113.107 C612.80,112.667 612.373,112.521 612.959,112.521 L614.131,112.667 C615.156,112.667 616.182,113.107 616.621,113.400 C617.207,113.839 617.500,114.425 617.500,115.158 C617.500,115.744 617.354,116.183 616.914,116.623 C616.621,116.916 615.742,118.820 614.864,120.578 C614.131,122.482 613.399,123.947 613.252,124.93 C612.666,124.386 610.908,135.666 610.908,139.35 C610.908,140.792 611.494,141.964 612.373,141.964 C613.252,141.964 615.303,140.60 617.61,137.277 C619.112,134.201 619.990,132.296 622.627,126.291 C623.653,123.654 624.824,121.310 624.971,121.17 C625.557,120.431 626.143,118.820 626.143,117.794 L626.143,117.355 C626.143,117.62 626.289,116.476 626.582,116.37 C626.875,115.451 627.608,115.158 628.487,115.158 C629.658,115.158 630.977,115.744 631.416,116.769 L631.563,117.648 C631.563,118.673 631.416,120.285 630.977,123.361 C629.72,135.373 627.901,143.136 627.608,143.869 L627.608,144.15 C627.901,144.15 628.926,142.843 630.537,140.939 C635.225,134.933 641.84,128.341 642.403,127.462 C643.281,126.876 644.14,126.583 644.453,126.583 C644.600,126.583 644.746,126.583 644.746,126.730 C644.746,126.876 643.574,128.48 642.256,129.367 C638.447,133.322 634.199,138.9 630.977,142.111 C629.805,143.869 628.340,145.626 627.901,146.212 C627.168,147.91 626.729,148.263 626.143,150.900 C625.117,155.587 620.283,173.751 618.526,179.464 C616.914,184.738 610.908,202.462 608.858,207.589 C605.635,215.939 602.412,221.652 599.336,224.728 C597.139,226.925 594.649,228.97 592.598,228.97 C591.719,228.97 590.987,227.951 590.254,227.511 C587.910,226.46 586.885,223.263 586.885,219.308 C586.885,215.60 588.57,209.640 590.694,203.341 C595.235,191.769 603.877,176.974 616.328,159.103 C619.697,154.416 618.379,156.906 619.844,151.46 C620.430,148.556 621.309,143.722 621.895,140.353 L623.946,129.513 L624.678,124.972 L623.67,129.513 C621.162,135.80 618.86,141.671 616.328,143.576 C614.864,145.333 613.545,145.919 611.494,145.919 C609.151,145.919 607.100,144.162 606.221,141.232 C606.96,140.856 606.78,139.944 606.75,138.865 C604.200,142.384 602.553,144.18 600.215,145.187 C599.43,145.773 597.871,146.66 596.846,146.66 C594.209,146.66 591.865,144.455 590.840,141.818 C590.547,141.232 590.401,139.621 590.401,137.716 C590.401,135.373 590.694,132.443 590.987,130.832 C591.280,129.513 592.305,125.998 593.330,122.921 C595.967,114.718 597.285,110.177 597.285,109.738 C597.139,109.738 596.406,110.324 595.528,111.56 C592.451,113.986 583.516,132.150 579.121,144.748 C577.949,148.117 575.899,155.294 575.459,157.638 C575.166,159.396 573.848,160.275 571.651,160.275 C570.772,160.275 570.186,159.982 569.600,159.396 C568.721,158.517 568.721,158.224 568.721,156.906 C568.721,154.708 569.600,150.900 570.918,144.162 C571.504,140.939 573.555,135.373 574.434,131.710 C576.192,123.654 576.924,120.871 579.121,113.693 C580.147,110.763 581.905,104.904 583.76,100.509 C586.153,89.962 591.133,73.556 592.451,70.41 L593.234,68.204 C588.434,69.333 584.666,70.271 584.248,70.480 C582.51,71.652 572.383,100.363 566.817,122.42 C565.498,127.755 561.983,143.136 560.957,148.117 C559.639,154.269 558.906,159.689 558.906,163.351 C558.906,164.962 559.53,166.281 559.346,167.306 C559.639,168.478 560.225,169.650 560.518,170.89 C560.811,170.675 561.104,170.822 561.690,170.822 L563.8,170.822 C563.447,170.822 563.594,170.968 563.740,171.554 L563.740,171.847 C563.740,173.19 562.129,174.337 560.664,174.337 L560.78,174.191 C558.174,173.751 556.416,171.701 555.244,168.917 C554.658,167.306 554.512,166.720 554.512,160.861 C554.658,153.390 554.805,152.218 558.28,136.837 C558.147,136.300 558.268,135.760 558.389,135.220 L557.442,136.984 C556.123,139.474 554.951,141.232 554.219,142.550 C553.487,143.869 552.754,144.748 552.315,145.480 C551.875,146.212 551.289,146.798 550.850,147.238 C549.239,148.849 547.627,149.728 545.869,149.728 C544.844,149.728 543.672,149.435 542.647,148.849 C541.914,148.556 541.475,148.263 541.182,147.970 C540.889,147.677 540.596,147.238 540.303,146.798 C539.864,145.773 539.571,144.601 539.571,143.283 C539.571,141.85 540.449,137.570 542.61,132.736 L542.354,131.710 C542.500,131.125 542.793,130.539 542.940,130.99 C543.86,129.660 543.86,129.513 543.86,129.367 L543.86,129.220 C543.86,128.927 542.940,128.634 542.500,128.488 C540.882,127.892 539.597,127.299 538.573,126.732 C538.107,127.534 537.218,128.366 535.762,129.367 C533.418,130.978 532.539,130.832 530.49,131.271 C527.852,131.417 528.438,130.978 527.705,134.347 C526.973,138.302 524.629,142.550 522.285,144.162 C521.260,144.894 519.942,145.187 518.770,145.187 C518.184,145.187 517.598,145.41 517.158,144.894 C515.987,144.308 514.815,142.843 514.229,141.232 C513.936,140.353 513.789,138.449 513.789,136.251 C513.959,133.874 514.130,131.753 514.328,129.953 C512.629,130.940 511.672,130.895 509.541,131.271 C507.344,131.417 507.930,130.978 507.197,134.347 C506.465,138.302 504.121,142.550 501.778,144.162 C500.752,144.894 499.434,145.187 498.262,145.187 C497.676,145.187 497.90,145.41 496.651,144.894 C495.479,144.308 494.307,142.843 493.721,141.232 C493.428,140.353 493.281,138.449 493.281,136.251 C493.290,136.136 493.298,136.27 493.306,135.913 C490.982,140.782 489.579,142.485 487.276,143.576 C486.104,144.162 484.932,144.455 483.906,144.455 C480.244,144.455 477.168,141.232 476.436,135.958 L476.289,133.322 C476.289,131.710 476.436,129.806 477.22,126.583 C477.461,124.679 477.608,123.68 477.608,122.921 C477.168,122.921 474.678,126.583 473.213,129.220 L469.551,136.251 C467.647,140.60 467.207,140.792 466.475,141.85 L466.182,141.85 C465.303,141.85 463.985,140.499 462.813,139.474 C462.373,139.35 462.80,138.449 462.80,137.716 C462.80,135.812 463.106,132.882 465.156,127.902 C468.86,120.724 470.283,115.11 470.723,113.253 L471.16,111.935 L471.16,111.789 L470.869,111.935 C470.137,112.521 467.207,117.501 465.596,120.431 C464.864,121.896 463.545,125.119 462.520,127.609 L459.151,135.666 C458.272,137.570 457.393,140.60 457.100,141.232 C456.660,142.404 456.74,144.601 455.635,146.66 C455.196,147.384 454.903,148.849 454.903,149.142 C454.903,150.167 454.170,152.72 453.438,152.804 C452.998,153.390 452.559,153.537 451.973,153.537 L450.362,153.244 C448.604,152.804 447.578,150.753 447.578,147.384 C447.578,144.601 448.164,141.85 449.336,136.691 C449.441,136.307 449.614,135.718 449.838,134.988 C449.715,135.180 449.595,135.362 449.483,135.519 C447.871,138.9 444.502,141.671 443.37,142.550 C442.158,143.136 441.133,143.429 439.668,143.576 L438.643,143.576 C435.420,143.576 433.516,142.257 431.905,139.181 C431.172,137.570 431.26,137.130 431.26,135.373 L431.26,133.468 C431.26,130.246 431.319,127.169 431.905,125.412 L432.51,125.119 L431.758,125.412 C431.612,125.705 431.26,127.902 429.854,130.832 C427.510,136.837 425.899,141.378 423.262,145.333 C420.625,149.289 419.160,151.46 417.110,151.193 C416.377,151.193 415.352,151.46 415.59,150.900 C412.276,149.728 410.664,147.91 410.518,143.283 L410.518,142.111 C410.518,139.883 410.749,136.660 411.98,133.993 L409.492,136.984 C408.174,139.474 407.2,141.232 406.270,142.550 C405.537,143.869 404.805,144.748 404.365,145.480 C403.926,146.212 403.340,146.798 402.901,147.238 C401.289,148.849 399.678,149.728 397.920,149.728 C396.895,149.728 395.723,149.435 394.697,148.849 C393.965,148.556 393.526,148.263 393.233,147.970 C392.940,147.677 392.647,147.238 392.354,146.798 C391.914,145.773 391.621,144.601 391.621,143.283 C391.621,141.85 392.500,137.570 394.112,132.736 L394.405,131.710 C394.551,131.125 394.844,130.539 394.990,130.99 C395.137,129.660 395.137,129.513 395.137,129.367 L395.137,129.220 C395.137,128.927 394.990,128.634 394.551,128.488 C392.979,127.909 391.719,127.332 390.707,126.780 C390.451,127.393 390.172,128.53 389.864,128.781 C385.30,140.353 381.367,143.869 378.731,144.601 L377.266,144.748 C376.240,144.748 374.483,144.455 373.18,143.283 C372.72,142.336 370.516,140.137 370.49,137.502 C367.870,141.984 366.117,143.877 363.496,145.187 C362.324,145.773 361.153,146.66 360.127,146.66 C357.490,146.66 355.147,144.455 354.121,141.818 C353.828,141.232 353.682,139.621 353.682,137.716 C353.682,135.373 353.975,132.443 354.268,130.832 C354.561,129.513 355.586,125.998 356.612,122.921 C359.248,114.718 360.567,110.177 360.567,109.738 C360.420,109.738 359.688,110.324 358.809,111.56 C355.733,113.986 346.797,132.150 342.403,144.748 C341.231,148.117 339.180,155.294 338.740,157.638 C338.447,159.396 337.129,160.275 334.932,160.275 C334.53,160.275 333.467,159.982 332.881,159.396 C332.2,158.517 332.2,158.224 332.2,156.906 C332.2,154.708 332.881,150.900 334.199,144.162 C334.785,140.939 336.836,135.373 337.715,131.710 C339.473,123.654 340.205,120.871 342.403,113.693 C343.428,110.763 345.186,104.904 346.358,100.509 C349.434,89.962 354.414,73.556 355.733,70.41 L363.350,52.169 C365.694,46.457 368.330,41.769 369.649,41.37 C369.942,40.890 370.674,40.744 371.260,40.744 C372.139,40.744 372.725,41.37 373.604,41.916 C374.336,42.648 374.776,43.234 374.776,44.113 C374.776,44.845 374.336,45.871 373.311,47.482 C369.63,54.660 368.330,55.978 367.598,57.882 L364.375,65.353 C362.910,68.429 361.299,72.384 360.713,73.996 C358.662,79.562 353.535,94.650 351.631,100.802 C350.606,104.171 348.701,110.470 347.237,114.865 C345.772,119.113 343.721,126.291 342.696,130.685 L339.326,143.576 C337.862,148.703 336.543,154.269 336.543,155.294 C336.543,155.734 336.690,156.27 336.836,156.27 C337.129,156.27 337.422,155.587 337.715,154.855 L340.352,146.505 C342.549,140.207 343.867,136.837 348.115,126.730 C350.313,121.896 356.172,111.203 357.783,109.591 C359.834,107.394 361.739,106.369 363.350,106.369 C364.229,106.369 364.961,106.662 365.694,107.248 C366.426,107.980 366.865,108.859 366.865,110.324 C366.865,113.107 365.401,117.794 362.178,126.583 C359.834,132.589 359.248,135.80 358.809,138.742 L358.809,139.914 C358.809,141.525 359.395,142.111 360.713,142.404 L361.739,142.550 C363.936,142.550 366.133,140.646 369.63,135.958 C369.270,135.596 369.463,135.278 369.650,134.980 C369.568,134.397 369.502,133.788 369.502,133.175 C369.502,127.755 371.846,119.552 374.190,117.501 C375.69,116.769 376.240,116.330 377.266,116.330 C378.731,116.330 380.49,117.208 380.489,118.673 L380.489,119.113 C380.489,119.552 380.342,119.845 379.463,120.724 C376.973,122.921 374.922,129.660 374.922,134.494 C374.922,135.958 375.69,137.277 375.362,138.449 C375.947,140.499 376.533,141.232 377.412,141.232 C379.463,141.232 380.781,139.328 388.252,126.144 C388.399,125.894 388.541,125.655 388.679,125.423 C387.725,124.686 386.910,123.583 386.494,122.335 C386.201,121.457 386.55,120.724 386.55,120.285 C386.55,119.259 386.494,118.527 387.227,118.87 C387.520,117.794 387.813,117.648 388.106,117.501 C388.252,117.355 388.545,117.355 388.692,117.355 L389.278,117.355 C391.198,117.739 392.335,118.683 392.591,120.285 L392.647,120.285 C392.793,120.431 392.793,120.578 392.793,120.724 C392.793,120.961 392.744,121.264 392.647,121.643 L392.647,122.482 C392.647,122.921 392.647,123.214 392.793,123.361 C392.940,123.507 393.86,123.800 393.233,123.947 C393.379,124.93 393.819,124.386 394.258,124.533 C394.697,124.679 395.137,124.972 395.576,125.119 C397.627,125.705 398.799,126.876 399.239,128.488 L399.385,129.660 C399.385,130.246 399.239,131.125 398.946,132.150 L398.799,132.443 C397.188,138.742 396.309,142.550 396.309,144.162 C396.309,145.41 396.455,145.626 396.748,145.919 C397.188,146.212 397.627,146.359 398.360,146.359 C399.92,146.359 399.678,146.212 400.410,145.919 C401.143,145.626 402.461,144.308 404.219,141.818 C405.826,139.542 408.292,135.791 411.724,130.354 C412.128,128.645 413.105,125.467 414.180,122.482 C416.377,115.597 416.963,114.279 418.574,114.279 L419.160,114.279 C420.479,114.425 422.822,116.769 422.822,117.794 C422.822,118.87 421.651,120.724 420.186,123.654 C417.256,129.367 416.817,130.685 416.84,134.787 C415.498,138.156 415.205,140.792 415.205,142.843 C415.205,145.41 415.498,146.505 416.231,147.238 C416.670,147.677 416.963,147.970 417.403,147.970 C418.867,147.970 423.994,141.232 426.778,134.54 C430.293,125.851 431.172,123.654 431.319,122.628 C431.465,121.749 431.612,121.310 432.344,121.17 C432.930,120.724 433.662,120.578 434.395,120.578 C435.127,120.578 435.860,120.724 436.299,121.164 C436.739,121.603 436.885,121.749 436.885,122.775 L436.739,124.972 C436.592,126.583 436.446,129.806 436.446,132.3 C436.446,135.519 436.446,135.958 437.31,137.130 C437.764,138.595 438.496,139.35 440.108,139.474 L440.840,139.474 C442.12,139.474 443.184,138.888 445.88,137.423 C447.285,135.812 448.750,133.908 450.947,130.392 C451.258,129.896 451.521,129.486 451.758,129.125 C452.196,127.859 452.664,126.547 453.145,125.265 C454.756,120.578 456.367,115.451 456.807,113.839 C457.539,110.910 458.125,110.177 459.151,110.177 C460.908,110.177 461.934,111.789 461.934,114.718 C461.787,117.62 460.176,122.335 457.100,129.220 C453.438,137.863 451.826,142.843 451.387,147.91 L451.240,148.263 C451.240,148.556 451.240,148.556 451.387,148.556 L451.680,148.410 C452.266,147.970 454.903,142.550 456.74,139.474 C456.807,137.423 460.762,128.48 463.252,122.189 C465.10,118.234 468.672,111.789 470.283,110.177 C471.16,109.445 471.748,108.859 472.188,108.859 C473.67,108.859 473.946,109.884 474.385,111.349 L474.531,112.960 C474.531,116.183 473.506,122.42 472.188,125.851 L471.748,127.609 C471.895,127.609 472.481,126.583 473.360,125.558 C475.264,122.921 477.168,120.871 478.47,120.578 L478.487,120.578 C479.219,120.578 480.391,121.310 480.830,122.335 C481.270,123.68 481.416,124.679 481.563,128.488 C482.2,134.347 482.588,137.130 483.906,138.888 C484.492,139.621 485.78,140.60 485.664,140.60 C487.422,140.60 489.473,137.570 492.989,131.564 C493.286,131.44 493.554,130.579 493.798,130.162 C493.948,128.769 494.112,127.556 494.307,126.583 C495.772,119.699 498.115,116.183 501.45,116.183 C501.631,116.183 502.364,116.330 502.949,116.623 C504.121,117.208 504.707,118.234 504.707,119.406 C504.707,120.138 504.414,120.871 504.121,121.603 C503.828,122.189 503.242,122.921 502.949,123.214 L502.510,123.800 C502.510,124.93 502.803,124.240 503.535,124.533 C505.0,125.119 506.612,126.583 507.51,127.755 L507.490,128.634 C509.688,128.488 511.299,128.341 512.910,127.755 C513.336,127.695 514.38,127.377 514.745,126.969 C514.768,126.841 514.791,126.704 514.815,126.583 C516.280,119.699 518.623,116.183 521.553,116.183 C522.139,116.183 522.871,116.330 523.457,116.623 C524.629,117.208 525.215,118.234 525.215,119.406 C525.215,120.138 524.922,120.871 524.629,121.603 C524.336,122.189 523.750,122.921 523.457,123.214 L523.18,123.800 C523.18,124.93 523.311,124.240 524.43,124.533 C525.508,125.119 527.119,126.583 527.559,127.755 L527.998,128.634 C530.196,128.488 531.807,128.341 533.418,127.755 C534.239,127.638 536.75,126.586 537.7,125.719 C536.941,125.666 536.848,125.610 536.787,125.558 C535.762,124.826 534.883,123.654 534.444,122.335 C534.151,121.457 534.4,120.724 534.4,120.285 C534.4,119.259 534.444,118.527 535.176,118.87 C535.469,117.794 535.762,117.648 536.55,117.501 C536.201,117.355 536.494,117.355 536.641,117.355 L537.227,117.355 C539.424,117.794 540.596,118.966 540.596,121.17 L540.596,122.482 C540.596,122.921 540.596,123.214 540.742,123.361 C540.889,123.507 541.35,123.800 541.182,123.947 C541.328,124.93 541.768,124.386 542.207,124.533 C542.647,124.679 543.86,124.972 543.526,125.119 C545.576,125.705 546.748,126.876 547.188,128.488 L547.334,129.660 C547.334,130.246 547.188,131.125 546.895,132.150 L546.748,132.443 C545.137,138.742 544.258,142.550 544.258,144.162 C544.258,145.41 544.405,145.626 544.697,145.919 C545.137,146.212 545.576,146.359 546.309,146.359 C547.41,146.359 547.627,146.212 548.360,145.919 C549.92,145.626 550.410,144.308 552.168,141.818 C553.732,139.603 556.109,135.993 559.398,130.791 C564.355,109.358 570.616,86.957 575.166,75.314 L575.899,72.970 L575.752,72.970 C574.727,72.970 564.326,76.46 555.830,78.976 C546.748,82.52 541.475,83.957 532.246,87.472 L525.801,89.962 C530.196,90.695 532.246,90.695 532.246,91.867 C532.246,92.13 531.807,92.160 530.196,92.160 L528.145,92.160 C523.164,92.160 518.770,93.39 513.203,95.89 C509.834,96.261 508.662,96.701 508.76,96.701 C507.783,96.701 507.637,96.554 507.490,96.408 C507.197,96.115 507.51,95.822 507.51,95.675 C507.51,95.89 507.930,94.503 509.395,93.917 C510.274,93.625 515.840,91.134 521.699,88.644 C543.86,79.123 557.442,73.703 574.287,68.722 C579.268,67.257 577.803,68.576 579.707,63.888 C581.758,59.201 585.860,51.144 588.203,47.42 C590.547,43.87 592.451,41.37 593.916,40.597 L594.942,40.451 C596.992,40.451 599.336,41.916 599.336,43.380 C599.336,43.820 598.457,45.871 597.432,48.214 C596.260,50.412 595.88,53.195 594.649,54.220 C593.916,56.125 593.37,57.3 592.305,57.3 C592.12,57.3 591.719,56.857 591.426,56.417 L591.133,56.125 C590.840,56.125 590.254,57.150 588.643,60.373 C587.471,62.863 586.446,64.767 586.446,65.207 L592.12,63.888 C593.117,63.619 594.262,63.345 595.422,63.70 L600.69,52.169 C602.412,46.457 605.49,41.769 606.367,41.37 C606.660,40.890 607.393,40.744 607.979,40.744 C608.858,40.744 609.444,41.37 610.322,41.916 C611.55,42.648 611.494,43.234 611.494,44.113 C611.494,44.845 611.55,45.871 610.30,47.482 C605.781,54.660 605.49,55.978 604.317,57.882 L602.813,61.369 C612.379,59.227 622.357,57.219 628.780,56.271 C635.518,55.392 639.912,54.953 644.160,54.953 L646.65,54.953 C651.192,55.99 653.96,55.685 654.707,57.589 C655.293,58.322 655.586,59.54 655.586,59.640 C655.586,60.812 654.707,61.544 653.682,61.544 ZM617.354,160.568 L613.399,166.867 C601.973,185.177 593.623,202.316 591.280,212.716 C590.840,214.474 590.547,216.818 590.547,218.869 C590.547,220.773 590.840,222.384 591.133,223.117 C591.572,223.849 592.12,224.142 592.451,224.142 C593.184,224.142 593.916,223.703 595.88,222.677 L594.942,222.677 C599.190,218.869 601.973,212.570 609.737,188.986 C611.787,182.394 617.354,162.33 617.354,160.714 L617.354,160.568 ZM504.268,127.609 C503.975,127.316 503.535,127.169 503.242,127.169 L503.682,127.609 L504.707,127.902 L504.268,127.609 ZM505.440,131.417 C505.440,130.832 505.293,130.685 504.707,130.539 C503.389,130.99 501.924,128.927 501.338,127.902 L500.752,127.169 C499.580,132.3 498.262,136.691 498.262,140.207 C498.262,141.85 498.408,141.671 498.555,141.818 L498.994,141.964 C499.580,141.964 500.459,141.525 501.485,140.646 C503.96,139.181 505.0,135.519 505.440,132.296 L505.440,131.417 ZM524.776,127.609 C524.483,127.316 524.43,127.169 523.750,127.169 L524.190,127.609 L525.215,127.902 L524.776,127.609 ZM525.947,131.417 C525.947,130.832 525.801,130.685 525.215,130.539 C523.897,130.99 522.432,128.927 521.846,127.902 L521.260,127.169 C520.88,132.3 518.770,136.691 518.770,140.207 C518.770,141.85 518.916,141.671 519.63,141.818 L519.502,141.964 C520.88,141.964 520.967,141.525 521.992,140.646 C523.604,139.181 525.508,135.519 525.947,132.296 L525.947,131.417 ZM384.444,112.228 C384.444,113.546 383.272,114.425 382.100,114.425 C380.781,114.425 379.610,113.107 379.610,111.935 C379.610,110.763 380.635,109.738 381.807,109.738 C383.272,109.738 384.444,110.617 384.444,112.228 ZM495.332,41.183 C494.600,43.87 493.574,44.845 492.110,46.457 C490.645,48.68 489.326,48.947 488.155,48.947 C487.569,48.947 486.983,48.654 486.543,48.214 C486.104,47.775 485.811,47.335 485.811,46.749 C485.811,46.17 486.250,44.992 487.129,43.966 C489.619,40.597 491.84,36.203 491.231,30.783 L491.231,29.318 C491.231,25.363 490.205,22.433 488.8,20.382 C483.321,15.402 469.112,12.912 445.528,12.912 L435.420,13.58 C417.989,13.351 400.557,14.669 382.832,16.867 C351.485,20.675 319.551,26.974 286.885,35.910 C270.119,40.448 255.644,44.877 243.248,49.292 C241.475,53.499 239.130,59.531 236.231,67.406 C239.219,67.515 242.675,67.624 246.602,67.697 C249.385,67.843 252.168,67.843 254.951,67.990 C257.735,68.136 259.785,68.429 261.397,68.576 C294.63,70.919 314.278,81.173 322.41,99.484 C322.774,101.95 323.653,103.0 324.385,105.197 C325.117,107.394 325.557,109.5 325.850,110.324 C325.996,111.203 326.143,111.642 326.289,111.642 C326.436,111.642 326.729,111.203 327.22,110.177 C328.926,103.878 332.149,94.210 336.397,80.880 C340.645,67.550 345.39,53.634 349.727,39.132 C350.899,35.617 351.778,32.980 352.510,31.76 C353.242,29.171 353.828,27.853 354.268,27.121 C354.707,26.388 355.293,25.949 355.733,25.656 C356.319,25.363 356.905,25.216 357.490,25.216 C358.809,25.216 359.981,25.949 360.860,27.414 C361.6,27.707 361.6,28.0 361.153,28.146 C361.153,28.292 361.153,28.585 361.153,28.878 L361.6,30.783 C360.567,33.126 360.127,34.298 359.834,34.298 C359.688,34.298 359.541,33.712 359.395,32.394 L359.395,30.490 C358.223,34.298 357.197,37.814 356.319,40.890 C355.147,44.699 353.682,49.386 352.71,55.99 C350.313,60.812 347.676,69.15 344.307,79.708 C338.594,97.433 334.199,111.203 331.416,121.17 L331.270,121.17 L330.830,122.775 L326.875,135.812 C326.729,135.958 326.729,136.251 326.729,136.398 C326.582,136.837 326.436,137.130 326.436,137.277 C326.289,137.716 326.143,138.156 326.143,138.742 C326.143,139.474 326.143,140.499 325.996,141.818 L325.996,143.576 C325.264,159.396 322.627,176.681 317.793,195.578 C315.10,206.564 312.813,212.863 310.908,214.474 C310.176,214.914 309.444,215.207 308.711,215.207 C307.832,215.207 306.953,214.914 306.221,214.181 C305.196,213.302 304.610,211.251 304.610,207.882 C304.610,206.271 304.756,204.513 304.903,202.316 C306.367,186.935 311.55,165.402 318.965,137.716 L319.258,136.544 L319.258,136.251 C320.137,133.468 321.16,130.685 321.748,128.48 C322.481,125.412 323.67,123.214 323.360,121.749 C323.506,121.457 323.506,121.17 323.653,120.724 L323.506,120.724 C323.653,119.845 323.799,119.113 323.799,118.380 C323.799,116.769 323.506,114.718 322.920,112.228 L322.920,111.935 C318.965,89.523 302.119,76.193 272.676,72.238 C268.281,71.505 263.594,71.66 258.614,70.626 C253.633,70.333 247.334,70.41 239.571,69.894 C238.69,69.866 236.669,69.831 235.322,69.792 C231.165,80.685 225.941,98.776 219.649,123.947 C213.936,145.333 211.6,161.740 211.6,173.458 C211.6,178.146 211.885,180.490 213.643,180.490 C215.108,180.783 215.840,181.222 215.840,181.955 L215.547,182.687 C214.668,183.712 213.643,184.152 212.617,184.152 C211.739,184.152 210.860,183.859 210.127,183.273 C207.930,181.662 206.905,178.439 206.905,173.605 C206.905,167.892 207.197,162.912 207.637,158.810 C208.809,147.824 210.274,138.595 212.178,131.125 C215.108,118.966 217.305,109.738 218.623,103.146 C218.330,103.585 216.719,107.101 213.643,113.839 C211.885,117.941 211.6,120.285 211.6,120.724 L211.299,122.921 C211.299,123.654 211.153,123.947 210.860,124.93 C210.713,124.93 210.567,123.800 210.567,123.361 C210.567,122.921 210.567,122.628 210.420,122.628 C210.127,122.628 209.541,123.800 208.662,126.291 C207.637,128.781 206.612,131.564 205.440,134.494 C204.121,137.570 203.96,139.767 202.364,141.378 C199.873,146.212 197.383,148.703 194.893,148.703 C193.428,148.703 192.256,148.117 191.377,147.91 C190.352,146.66 189.766,145.41 189.473,143.722 C189.405,143.415 189.346,143.107 189.294,142.796 C188.350,145.172 187.396,147.399 186.543,149.142 C182.881,156.759 179.805,160.275 176.729,160.275 C175.996,160.275 175.410,160.128 174.824,159.835 C173.360,159.249 172.41,157.345 171.309,155.1 C170.576,152.951 170.576,152.218 170.576,146.212 C170.576,141.671 170.869,138.449 171.162,136.251 L171.602,133.29 C171.455,133.29 170.723,134.201 169.990,135.666 C165.156,144.601 161.201,148.556 157.393,148.556 C156.953,148.556 156.367,148.556 155.928,148.410 C153.291,147.677 151.240,145.41 150.801,141.378 L150.801,140.207 C150.801,139.912 150.812,139.604 150.832,139.287 C150.53,140.619 149.379,141.683 148.897,142.550 C148.164,143.869 147.432,144.748 146.992,145.480 C146.553,146.212 145.967,146.798 145.528,147.238 C143.916,148.849 142.305,149.728 140.547,149.728 C139.522,149.728 138.350,149.435 137.324,148.849 C136.592,148.556 136.153,148.263 135.860,147.970 C135.567,147.677 135.274,147.238 134.981,146.798 C134.541,145.773 134.248,144.601 134.248,143.283 C134.248,141.85 135.127,137.570 136.739,132.736 L137.31,131.710 C137.178,131.125 137.471,130.539 137.617,130.99 C137.764,129.660 137.764,129.513 137.764,129.367 L137.764,129.220 C137.764,128.927 137.617,128.634 137.178,128.488 C134.395,127.462 132.490,126.437 131.465,125.558 C130.440,124.826 129.561,123.654 129.121,122.335 C128.828,121.457 128.682,120.724 128.682,120.285 C128.682,119.259 129.121,118.527 129.854,118.87 C130.147,117.794 130.440,117.648 130.733,117.501 C130.879,117.355 131.172,117.355 131.319,117.355 L131.905,117.355 C134.102,117.794 135.274,118.966 135.274,121.17 L135.274,122.482 C135.274,122.921 135.274,123.214 135.420,123.361 C135.567,123.507 135.713,123.800 135.860,123.947 C136.6,124.93 136.446,124.386 136.885,124.533 C137.324,124.679 137.764,124.972 138.203,125.119 C140.254,125.705 141.426,126.876 141.865,128.488 L142.12,129.660 C142.12,130.246 141.865,131.125 141.572,132.150 L141.426,132.443 C139.815,138.742 138.936,142.550 138.936,144.162 C138.936,145.41 139.82,145.626 139.375,145.919 C139.815,146.212 140.254,146.359 140.987,146.359 C141.719,146.359 142.305,146.212 143.37,145.919 C143.770,145.626 145.88,144.308 146.846,141.818 C147.993,140.193 149.579,137.815 151.640,134.612 C152.739,130.344 154.832,125.445 157.393,121.603 C161.348,115.451 166.328,112.82 172.334,111.789 L173.799,111.789 C178.487,111.789 182.295,113.693 183.28,116.330 L183.174,117.355 C183.174,119.113 182.295,121.896 181.709,121.896 C181.563,121.896 181.416,121.164 181.416,120.138 L181.416,119.259 C181.416,117.355 180.830,116.916 179.72,116.476 L177.315,116.183 L175.264,116.476 C168.965,117.355 164.571,121.896 160.762,130.685 C159.151,134.494 158.125,138.742 158.125,140.646 C158.125,141.232 158.272,141.525 158.418,141.671 C159.883,141.671 166.768,133.175 171.162,125.998 C171.895,124.826 172.627,123.800 173.67,123.507 L173.653,123.361 C173.946,123.361 174.239,123.507 174.971,123.800 C175.996,124.240 176.289,124.533 176.436,125.558 L176.436,126.144 C176.436,127.609 176.289,131.125 175.996,134.787 C175.264,142.257 175.117,145.187 175.117,147.238 L175.264,150.314 C175.703,154.269 176.143,155.880 177.168,155.880 C177.608,155.880 178.340,155.441 179.72,154.708 C181.911,151.870 184.892,146.404 189.206,136.605 C189.362,135.151 189.626,133.588 190.59,131.857 C191.670,126.144 194.14,121.749 196.797,118.966 C199.287,116.476 201.631,115.304 203.828,115.304 C205.586,115.304 207.51,115.890 208.76,116.916 C208.516,117.355 208.809,117.501 209.102,117.501 C209.541,117.501 210.420,115.744 211.885,112.82 C217.12,99.484 220.381,91.134 222.285,87.179 C223.311,84.542 224.776,80.294 226.533,74.435 C226.867,73.267 227.393,71.630 228.115,69.516 C225.904,69.405 224.40,69.283 222.578,69.162 C218.916,68.869 216.280,68.429 214.522,67.843 C213.643,67.550 212.910,67.111 212.178,66.525 C211.446,66.85 210.860,65.500 210.713,64.914 L210.713,64.621 C210.713,64.181 211.6,63.449 211.446,62.716 C211.885,61.984 212.324,61.251 213.57,60.666 C217.119,57.645 224.533,54.29 235.366,49.823 C238.704,41.563 241.230,37.375 242.940,37.375 C243.672,37.375 244.405,37.521 245.137,37.960 C246.455,38.693 247.188,39.718 247.188,40.744 C247.188,41.330 247.41,41.769 246.748,42.208 C246.284,42.724 245.529,44.132 244.491,46.431 C246.347,45.767 248.259,45.95 250.264,44.406 C269.453,37.960 290.547,31.955 313.838,26.388 C352.364,17.160 389.717,11.593 426.45,9.542 C431.465,9.396 437.910,9.249 445.381,9.249 C449.629,9.249 453.731,9.249 457.539,9.249 C461.348,9.396 464.131,9.542 466.35,9.689 C479.365,10.714 487.715,13.351 491.231,17.453 C492.403,18.478 493.281,19.650 493.867,20.822 C494.453,22.140 495.39,23.751 495.625,25.949 C495.918,26.974 496.211,27.853 496.358,28.439 C496.504,29.171 496.504,29.904 496.504,30.636 L496.358,33.566 C496.211,36.642 495.918,39.279 495.332,41.183 ZM319.697,162.619 C319.112,164.816 318.526,167.306 317.793,170.89 C317.61,172.873 316.475,175.509 315.889,177.853 C315.156,181.222 314.424,184.738 313.692,188.546 C312.959,192.355 312.373,195.578 311.934,198.68 L311.934,198.361 C312.80,198.361 312.373,197.482 312.959,195.724 C313.399,193.966 313.985,191.623 314.717,188.839 L317.647,176.681 C318.86,174.484 318.526,172.140 318.965,169.650 C319.405,167.160 319.844,164.816 320.137,162.912 C320.430,161.7 320.576,159.835 320.576,159.396 C320.430,159.542 320.137,160.568 319.697,162.619 ZM204.854,118.380 C201.45,118.380 197.969,122.335 195.772,130.392 C195.186,132.150 194.893,134.347 194.893,136.837 C194.893,140.353 195.186,142.111 195.625,142.111 C195.772,142.111 195.918,141.964 196.65,141.818 C198.701,139.181 202.364,132.736 207.51,122.335 L208.369,119.552 C206.758,118.820 205.586,118.380 204.854,118.380 ZM213.350,63.595 C213.57,64.35 212.910,64.328 212.910,64.474 L213.350,64.914 L215.547,65.792 C216.572,66.85 217.891,66.378 219.649,66.525 C221.406,66.671 224.336,66.964 228.584,67.111 C228.698,67.115 228.828,67.120 228.944,67.124 C230.51,63.976 231.486,60.32 233.272,55.246 C233.609,54.336 233.936,53.473 234.259,52.632 C222.545,57.203 215.643,60.897 213.350,63.595 ZM44.893,161.740 C38.8,191.623 35.811,200.265 35.811,208.322 C38.155,207.3 45.625,194.845 47.969,193.966 C48.408,193.966 48.555,194.259 48.555,194.699 C48.555,197.189 41.377,211.105 38.301,213.595 C36.983,214.621 35.664,215.207 34.492,215.207 C31.709,215.207 29.512,213.9 29.512,206.710 C29.512,203.634 29.951,199.679 30.684,195.431 C31.563,189.425 35.664,171.701 37.715,163.937 L37.715,163.644 C37.715,163.58 31.563,163.791 28.633,162.619 C25.410,161.300 23.653,158.810 23.653,155.734 C24.239,148.263 32.149,140.60 44.893,131.417 L47.90,129.806 C52.364,111.935 64.668,72.824 67.744,60.666 C68.916,55.539 69.356,54.660 70.967,54.660 C71.846,54.660 73.164,55.685 73.164,57.882 C73.164,63.302 69.502,75.900 55.293,123.800 L55.0,125.265 C68.477,117.794 81.514,112.374 96.16,107.833 C105.244,104.904 119.14,101.242 126.778,99.484 C129.707,98.898 130.586,98.605 131.26,98.19 C151.94,74.874 161.494,54.513 161.494,36.56 C161.494,17.160 148.897,6.27 127.656,6.27 C121.504,6.27 114.766,6.906 107.442,8.810 C69.649,18.332 22.627,53.341 8.711,82.492 C6.74,87.912 4.756,92.599 4.756,96.261 C4.756,101.95 6.807,105.343 12.959,105.343 C16.328,105.343 20.137,103.585 20.723,103.585 C21.16,103.585 21.162,103.732 21.162,103.878 C21.162,105.50 15.742,107.833 11.934,107.833 C6.221,107.833 0.508,104.611 0.508,94.796 C0.508,80.441 11.55,65.500 25.850,50.558 C49.873,26.681 82.539,7.931 109.932,2.72 C116.963,0.607 119.14,0.460 126.924,0.460 C135.420,0.460 138.496,0.900 144.356,2.951 C160.176,8.224 167.61,21.261 167.61,35.763 C167.61,63.449 143.477,99.630 105.684,128.634 C82.100,146.652 64.82,155.587 44.893,161.740 ZM35.811,143.429 C31.123,148.117 28.47,152.804 28.47,155.734 C28.47,157.345 28.487,157.931 30.244,158.517 C30.830,158.810 32.149,158.957 33.760,158.957 C35.664,158.957 37.715,158.664 38.594,158.371 C39.619,158.78 40.352,154.416 43.281,143.576 C44.307,139.621 45.332,136.105 45.332,135.666 C44.893,135.666 38.301,141.85 35.811,143.429 ZM128.96,101.95 L127.949,101.95 C127.217,101.95 120.918,103.146 111.690,105.929 C92.354,111.642 79.170,116.769 65.254,123.800 C60.567,126.144 54.268,129.660 53.828,130.246 C53.242,130.685 50.166,142.843 46.504,156.27 C46.504,156.173 46.504,156.173 46.651,156.173 C48.262,156.173 65.840,148.556 77.559,141.525 C94.697,131.271 109.785,119.552 123.115,106.369 C125.899,103.732 128.96,101.242 128.96,101.95 ZM231.807,114.572 C233.711,113.107 235.30,112.521 236.934,112.521 L238.106,112.521 C240.303,112.814 240.596,113.107 240.596,115.158 C240.596,119.113 238.692,123.68 234.737,127.169 C232.832,129.220 229.756,131.271 228.731,131.271 C228.145,131.271 227.852,132.296 227.705,135.958 L227.559,137.863 C227.559,142.111 228.877,144.601 230.781,144.601 C233.418,144.601 235.762,141.964 241.35,134.787 C242.350,132.979 243.404,131.539 244.260,130.387 C245.876,123.714 249.406,117.95 252.461,114.572 C254.365,113.107 255.684,112.521 257.588,112.521 L258.760,112.521 C260.957,112.814 261.250,113.107 261.250,115.158 C261.250,119.113 259.346,123.68 255.391,127.169 C253.487,129.220 250.410,131.271 249.385,131.271 C248.799,131.271 248.506,132.296 248.360,135.958 L248.213,137.863 C248.213,142.111 249.531,144.601 251.436,144.601 C254.72,144.601 256.416,141.964 261.690,134.787 C263.797,131.889 265.249,129.916 266.253,128.614 C266.590,127.446 266.817,126.602 266.817,126.437 C267.989,123.68 267.403,124.533 268.135,122.189 C270.39,116.916 270.479,116.183 272.676,116.183 C275.313,116.183 276.778,117.208 276.778,118.966 C276.778,119.406 275.606,122.42 274.141,124.826 C272.822,125.558 271.797,127.902 268.867,136.984 L266.524,144.308 C266.670,144.308 267.549,142.697 268.867,140.939 C275.20,131.417 281.319,122.628 285.274,122.628 C286.6,122.628 286.592,122.775 287.31,123.68 C287.910,123.654 289.375,126.291 289.668,130.392 C289.668,130.539 289.668,130.685 289.815,130.685 C293.37,129.74 300.947,125.119 302.852,124.826 L303.145,124.826 C303.438,124.826 303.584,124.826 303.584,124.972 C303.584,125.265 303.145,125.705 302.559,126.144 C302.119,126.583 300.801,127.169 299.629,127.755 C298.457,128.341 294.63,130.539 292.598,131.417 L289.961,133.29 C289.961,135.812 289.815,138.9 288.203,142.257 C286.592,147.238 282.490,152.511 279.121,154.269 C277.949,154.855 276.631,155.148 275.459,155.148 C274.434,155.148 273.555,155.1 272.969,154.562 C271.797,153.683 271.211,152.511 271.211,151.193 C271.211,148.996 272.676,146.66 275.459,142.697 C278.535,139.35 282.783,135.80 286.6,132.882 C287.31,132.150 287.178,132.3 287.178,130.685 C287.31,126.730 286.592,125.851 286.299,125.265 C285.860,124.386 285.127,124.240 284.981,124.240 C283.369,124.240 281.319,125.705 276.485,132.443 C271.504,139.328 265.352,147.238 263.594,152.951 C261.250,159.689 258.760,169.210 258.760,170.675 L258.906,172.433 C258.906,179.611 255.98,208.175 253.780,212.570 C253.194,214.474 252.22,215.646 250.850,215.646 C250.410,215.646 250.117,215.499 249.678,215.207 C248.653,214.474 248.67,212.570 248.67,209.54 C248.67,205.392 248.653,199.826 251.143,186.642 C252.168,181.222 253.633,173.19 255.391,166.720 C258.174,156.320 257.881,156.27 261.104,146.505 C261.836,144.15 263.301,139.35 264.180,135.519 C264.301,135.120 264.431,134.694 264.565,134.253 C262.490,137.671 260.66,141.395 258.614,143.283 C255.977,146.798 253.194,148.703 250.410,148.703 C249.531,148.703 248.506,148.410 247.627,147.970 C246.16,147.91 244.405,145.187 243.819,142.990 C243.526,141.964 243.379,140.60 243.379,138.156 C243.379,137.75 243.421,135.956 243.502,134.922 C241.524,138.147 239.317,141.517 237.959,143.283 C235.322,146.798 232.539,148.703 229.756,148.703 C228.877,148.703 227.852,148.410 226.973,147.970 C225.362,147.91 223.750,145.187 223.164,142.990 C222.871,141.964 222.725,140.60 222.725,138.156 C222.725,136.105 222.871,133.908 223.164,132.443 C224.483,125.119 228.438,117.355 231.807,114.572 ZM231.953,128.195 C233.272,127.169 236.55,123.507 237.520,120.871 C238.106,119.992 238.692,118.380 238.985,117.355 L239.278,115.597 C239.278,114.572 238.838,114.279 237.666,114.279 C234.297,114.279 230.928,119.845 228.584,129.220 L228.438,130.99 C229.903,129.513 230.196,129.220 231.953,128.195 ZM252.608,128.195 C253.926,127.169 256.709,123.507 258.174,120.871 C258.760,119.992 259.346,118.380 259.639,117.355 L259.932,115.597 C259.932,114.572 259.492,114.279 258.321,114.279 C254.951,114.279 251.582,119.845 249.239,129.220 L249.92,130.99 C250.557,129.513 250.850,129.220 252.608,128.195 ZM285.713,136.251 C284.834,136.251 277.71,144.601 275.606,147.384 C275.166,148.410 274.873,149.582 274.873,150.314 C274.873,150.607 274.873,150.753 275.20,150.753 C275.752,150.753 284.834,142.404 285.860,136.398 C285.860,136.251 285.860,136.251 285.713,136.251 Z"/>
</svg>